<mxfile host="app.diagrams.net" agent="Mozilla/5.0 (Windows NT 10.0; Win64; x64) AppleWebKit/537.36 (KHTML, like Gecko) Chrome/130.0.0.0 Safari/537.36 Edg/130.0.0.0" version="24.8.3">
  <diagram name="Page-1" id="lG9rWja2wPOOmm4KBOdj">
    <mxGraphModel dx="285" dy="1865" grid="1" gridSize="10" guides="1" tooltips="1" connect="1" arrows="1" fold="1" page="1" pageScale="1" pageWidth="827" pageHeight="1169" math="0" shadow="0">
      <root>
        <mxCell id="0" />
        <mxCell id="1" parent="0" />
        <mxCell id="-B80hZHZOHx4zzPaPUC2-1" style="edgeStyle=orthogonalEdgeStyle;rounded=0;orthogonalLoop=1;jettySize=auto;html=1;" edge="1" parent="1" source="-B80hZHZOHx4zzPaPUC2-7" target="-B80hZHZOHx4zzPaPUC2-16">
          <mxGeometry relative="1" as="geometry" />
        </mxCell>
        <mxCell id="-B80hZHZOHx4zzPaPUC2-2" value="Bekräftar" style="edgeLabel;html=1;align=center;verticalAlign=middle;resizable=0;points=[];fontSize=15;" vertex="1" connectable="0" parent="-B80hZHZOHx4zzPaPUC2-1">
          <mxGeometry x="-0.035" y="1" relative="1" as="geometry">
            <mxPoint as="offset" />
          </mxGeometry>
        </mxCell>
        <mxCell id="-B80hZHZOHx4zzPaPUC2-3" style="edgeStyle=orthogonalEdgeStyle;rounded=0;orthogonalLoop=1;jettySize=auto;html=1;exitX=0.5;exitY=0;exitDx=0;exitDy=0;entryX=0;entryY=0.5;entryDx=0;entryDy=0;" edge="1" parent="1" source="-B80hZHZOHx4zzPaPUC2-7" target="-B80hZHZOHx4zzPaPUC2-24">
          <mxGeometry relative="1" as="geometry" />
        </mxCell>
        <mxCell id="-B80hZHZOHx4zzPaPUC2-4" value="Mer än 1 resande" style="edgeLabel;html=1;align=center;verticalAlign=middle;resizable=0;points=[];fontSize=15;" vertex="1" connectable="0" parent="-B80hZHZOHx4zzPaPUC2-3">
          <mxGeometry x="0.0811" y="-1" relative="1" as="geometry">
            <mxPoint as="offset" />
          </mxGeometry>
        </mxCell>
        <mxCell id="-B80hZHZOHx4zzPaPUC2-5" style="edgeStyle=orthogonalEdgeStyle;rounded=0;orthogonalLoop=1;jettySize=auto;html=1;entryX=0;entryY=0.5;entryDx=0;entryDy=0;fontFamily=Helvetica;fontSize=15;fontColor=default;labelBackgroundColor=default;resizable=0;" edge="1" parent="1" source="-B80hZHZOHx4zzPaPUC2-7" target="-B80hZHZOHx4zzPaPUC2-9">
          <mxGeometry relative="1" as="geometry" />
        </mxCell>
        <mxCell id="-B80hZHZOHx4zzPaPUC2-6" value="Endast 1 resande" style="edgeLabel;html=1;align=center;verticalAlign=middle;resizable=0;points=[];fontFamily=Helvetica;fontSize=15;fontColor=default;labelBackgroundColor=default;fillColor=none;gradientColor=none;" vertex="1" connectable="0" parent="-B80hZHZOHx4zzPaPUC2-5">
          <mxGeometry x="0.0068" y="-4" relative="1" as="geometry">
            <mxPoint y="-4" as="offset" />
          </mxGeometry>
        </mxCell>
        <mxCell id="-B80hZHZOHx4zzPaPUC2-7" value="Användaren väljer en plats eller bekräftar" style="rhombus;whiteSpace=wrap;html=1;fillColor=#fff2cc;strokeColor=#d6b656;" vertex="1" parent="1">
          <mxGeometry x="1520" width="280" height="80" as="geometry" />
        </mxCell>
        <mxCell id="-B80hZHZOHx4zzPaPUC2-8" style="edgeStyle=orthogonalEdgeStyle;rounded=0;orthogonalLoop=1;jettySize=auto;html=1;entryX=0;entryY=0.5;entryDx=0;entryDy=0;fontFamily=Helvetica;fontSize=15;fontColor=default;labelBackgroundColor=default;resizable=0;" edge="1" parent="1" source="-B80hZHZOHx4zzPaPUC2-9" target="-B80hZHZOHx4zzPaPUC2-26">
          <mxGeometry relative="1" as="geometry" />
        </mxCell>
        <mxCell id="-B80hZHZOHx4zzPaPUC2-9" value="Platsen bokas" style="rounded=1;whiteSpace=wrap;html=1;fillColor=#dae8fc;strokeColor=#6c8ebf;arcSize=0;" vertex="1" parent="1">
          <mxGeometry x="2000" y="10" width="120" height="60" as="geometry" />
        </mxCell>
        <mxCell id="-B80hZHZOHx4zzPaPUC2-10" style="edgeStyle=orthogonalEdgeStyle;rounded=0;orthogonalLoop=1;jettySize=auto;html=1;entryX=0;entryY=0.5;entryDx=0;entryDy=0;fontFamily=Helvetica;fontSize=15;fontColor=default;labelBackgroundColor=default;resizable=0;" edge="1" parent="1" source="-B80hZHZOHx4zzPaPUC2-11" target="-B80hZHZOHx4zzPaPUC2-25">
          <mxGeometry relative="1" as="geometry" />
        </mxCell>
        <mxCell id="-B80hZHZOHx4zzPaPUC2-11" value="Platsen bokas" style="rounded=1;whiteSpace=wrap;html=1;fillColor=#dae8fc;strokeColor=#6c8ebf;arcSize=0;" vertex="1" parent="1">
          <mxGeometry x="1800" y="-470" width="120" height="60" as="geometry" />
        </mxCell>
        <mxCell id="-B80hZHZOHx4zzPaPUC2-12" style="edgeStyle=orthogonalEdgeStyle;rounded=0;orthogonalLoop=1;jettySize=auto;html=1;exitX=1;exitY=0.5;exitDx=0;exitDy=0;entryX=0;entryY=0.5;entryDx=0;entryDy=0;" edge="1" parent="1" source="-B80hZHZOHx4zzPaPUC2-14" target="-B80hZHZOHx4zzPaPUC2-30">
          <mxGeometry relative="1" as="geometry" />
        </mxCell>
        <mxCell id="-B80hZHZOHx4zzPaPUC2-13" value="Ja" style="edgeLabel;html=1;align=center;verticalAlign=middle;resizable=0;points=[];fontSize=15;" vertex="1" connectable="0" parent="-B80hZHZOHx4zzPaPUC2-12">
          <mxGeometry x="0.0163" y="1" relative="1" as="geometry">
            <mxPoint as="offset" />
          </mxGeometry>
        </mxCell>
        <mxCell id="-B80hZHZOHx4zzPaPUC2-14" value="Avgör ifall det finns tillräckligt med platser intill varandra" style="rounded=1;whiteSpace=wrap;html=1;fillColor=#dae8fc;strokeColor=#6c8ebf;arcSize=0;" vertex="1" parent="1">
          <mxGeometry x="1745" y="-180" width="230" height="50" as="geometry" />
        </mxCell>
        <mxCell id="-B80hZHZOHx4zzPaPUC2-15" value="" style="edgeStyle=orthogonalEdgeStyle;rounded=0;orthogonalLoop=1;jettySize=auto;html=1;" edge="1" parent="1" source="-B80hZHZOHx4zzPaPUC2-16">
          <mxGeometry relative="1" as="geometry">
            <mxPoint x="1810" y="265.7099999999996" as="targetPoint" />
          </mxGeometry>
        </mxCell>
        <mxCell id="-B80hZHZOHx4zzPaPUC2-16" value="Visa bokningsbekräftelse med:&lt;div&gt;&lt;ul&gt;&lt;li&gt;Alla platser&lt;/li&gt;&lt;li&gt;Alla platstyper&lt;/li&gt;&lt;li&gt;Avgångstid&lt;/li&gt;&lt;li&gt;Tågnummer&lt;/li&gt;&lt;/ul&gt;&lt;/div&gt;" style="rounded=1;whiteSpace=wrap;html=1;fillColor=#dae8fc;strokeColor=#6c8ebf;arcSize=0;" vertex="1" parent="1">
          <mxGeometry x="1576" y="195.71000000000004" width="160" height="140" as="geometry" />
        </mxCell>
        <mxCell id="-B80hZHZOHx4zzPaPUC2-17" value="" style="edgeStyle=orthogonalEdgeStyle;rounded=0;orthogonalLoop=1;jettySize=auto;html=1;" edge="1" parent="1" target="-B80hZHZOHx4zzPaPUC2-19">
          <mxGeometry relative="1" as="geometry">
            <mxPoint x="2120" y="265.71000000000004" as="sourcePoint" />
          </mxGeometry>
        </mxCell>
        <mxCell id="-B80hZHZOHx4zzPaPUC2-18" value="" style="edgeStyle=orthogonalEdgeStyle;rounded=0;orthogonalLoop=1;jettySize=auto;html=1;" edge="1" parent="1">
          <mxGeometry relative="1" as="geometry">
            <mxPoint x="1930" y="265.6842105263163" as="sourcePoint" />
            <mxPoint x="2000" y="265.71000000000004" as="targetPoint" />
          </mxGeometry>
        </mxCell>
        <mxCell id="-B80hZHZOHx4zzPaPUC2-19" value="&lt;h1&gt;Slut&lt;/h1&gt;" style="rounded=1;whiteSpace=wrap;html=1;arcSize=50;fillColor=#f8cecc;strokeColor=#b85450;" vertex="1" parent="1">
          <mxGeometry x="2180" y="235.71000000000004" width="120" height="60" as="geometry" />
        </mxCell>
        <mxCell id="-B80hZHZOHx4zzPaPUC2-20" style="edgeStyle=orthogonalEdgeStyle;rounded=0;orthogonalLoop=1;jettySize=auto;html=1;exitX=0.5;exitY=0;exitDx=0;exitDy=0;entryX=0.5;entryY=1;entryDx=0;entryDy=0;" edge="1" parent="1" source="-B80hZHZOHx4zzPaPUC2-24" target="-B80hZHZOHx4zzPaPUC2-11">
          <mxGeometry relative="1" as="geometry" />
        </mxCell>
        <mxCell id="-B80hZHZOHx4zzPaPUC2-21" value="Boka 1" style="edgeLabel;html=1;align=center;verticalAlign=middle;resizable=0;points=[];fontSize=15;" vertex="1" connectable="0" parent="-B80hZHZOHx4zzPaPUC2-20">
          <mxGeometry x="-0.0421" y="1" relative="1" as="geometry">
            <mxPoint x="1" y="1" as="offset" />
          </mxGeometry>
        </mxCell>
        <mxCell id="-B80hZHZOHx4zzPaPUC2-22" style="edgeStyle=orthogonalEdgeStyle;rounded=0;orthogonalLoop=1;jettySize=auto;html=1;exitX=0.5;exitY=1;exitDx=0;exitDy=0;entryX=0.5;entryY=0;entryDx=0;entryDy=0;fontFamily=Helvetica;fontSize=15;fontColor=default;labelBackgroundColor=default;resizable=0;" edge="1" parent="1" source="-B80hZHZOHx4zzPaPUC2-24" target="-B80hZHZOHx4zzPaPUC2-14">
          <mxGeometry relative="1" as="geometry">
            <Array as="points">
              <mxPoint x="1860" y="-240" />
              <mxPoint x="1860" y="-240" />
            </Array>
          </mxGeometry>
        </mxCell>
        <mxCell id="-B80hZHZOHx4zzPaPUC2-23" value="&lt;font style=&quot;font-size: 14px;&quot;&gt;Boka fler än 1&lt;/font&gt;" style="edgeLabel;html=1;align=center;verticalAlign=middle;resizable=0;points=[];" vertex="1" connectable="0" parent="-B80hZHZOHx4zzPaPUC2-22">
          <mxGeometry x="-0.1537" y="2" relative="1" as="geometry">
            <mxPoint as="offset" />
          </mxGeometry>
        </mxCell>
        <mxCell id="-B80hZHZOHx4zzPaPUC2-24" value="Boka alla eller endast 1" style="rhombus;whiteSpace=wrap;html=1;fillColor=#fff2cc;strokeColor=#d6b656;" vertex="1" parent="1">
          <mxGeometry x="1780" y="-310" width="160" height="70" as="geometry" />
        </mxCell>
        <mxCell id="-B80hZHZOHx4zzPaPUC2-25" value="&lt;h1&gt;A&lt;/h1&gt;" style="ellipse;whiteSpace=wrap;html=1;aspect=fixed;align=center;verticalAlign=middle;fontFamily=Helvetica;fontSize=15;labelBackgroundColor=none;resizable=0;fillColor=#ffe6cc;strokeColor=#d79b00;" vertex="1" parent="1">
          <mxGeometry x="2175" y="-480" width="80" height="80" as="geometry" />
        </mxCell>
        <mxCell id="-B80hZHZOHx4zzPaPUC2-26" value="&lt;h1&gt;A&lt;/h1&gt;" style="ellipse;whiteSpace=wrap;html=1;aspect=fixed;align=center;verticalAlign=middle;fontFamily=Helvetica;fontSize=15;labelBackgroundColor=none;resizable=0;fillColor=#ffe6cc;strokeColor=default;" vertex="1" parent="1">
          <mxGeometry x="2210" width="80" height="80" as="geometry" />
        </mxCell>
        <mxCell id="-B80hZHZOHx4zzPaPUC2-27" value="Skriv ut biljetter" style="strokeWidth=2;html=1;shape=mxgraph.flowchart.direct_data;whiteSpace=wrap;fillColor=#f5f5f5;fontColor=#333333;strokeColor=#666666;align=left;spacingLeft=8;" vertex="1" parent="1">
          <mxGeometry x="2000" y="235.71" width="120" height="60" as="geometry" />
        </mxCell>
        <mxCell id="-B80hZHZOHx4zzPaPUC2-28" value="Skriv bokningar till körningsfil" style="strokeWidth=2;html=1;shape=mxgraph.flowchart.direct_data;whiteSpace=wrap;fillColor=#f5f5f5;fontColor=#333333;strokeColor=#666666;spacingRight=30;spacingLeft=10;" vertex="1" parent="1">
          <mxGeometry x="1810" y="236" width="120" height="60" as="geometry" />
        </mxCell>
        <mxCell id="-B80hZHZOHx4zzPaPUC2-29" style="edgeStyle=orthogonalEdgeStyle;rounded=0;orthogonalLoop=1;jettySize=auto;html=1;exitX=0.5;exitY=0;exitDx=0;exitDy=0;" edge="1" parent="1" source="-B80hZHZOHx4zzPaPUC2-30" target="-B80hZHZOHx4zzPaPUC2-25">
          <mxGeometry relative="1" as="geometry" />
        </mxCell>
        <mxCell id="-B80hZHZOHx4zzPaPUC2-30" value="Platser bokas närmast angiven plats.&lt;br&gt;&lt;br&gt;Fokus på:&lt;div&gt;&lt;ul&gt;&lt;li&gt;Flest bredvid en annan bokad&lt;/li&gt;&lt;li&gt;Så nära varandra som möjligt&lt;/li&gt;&lt;/ul&gt;&lt;/div&gt;" style="rounded=1;whiteSpace=wrap;html=1;absoluteArcSize=1;arcSize=0;strokeWidth=2;fillColor=#dae8fc;strokeColor=#6c8ebf;" vertex="1" parent="1">
          <mxGeometry x="2107.5" y="-217.5" width="215" height="125" as="geometry" />
        </mxCell>
        <mxCell id="-B80hZHZOHx4zzPaPUC2-31" value="" style="rounded=0;whiteSpace=wrap;html=1;absoluteArcSize=1;arcSize=14;strokeWidth=2;glass=0;shadow=0;strokeColor=none;" vertex="1" parent="1">
          <mxGeometry x="1650" y="-60" width="20" height="20" as="geometry" />
        </mxCell>
        <mxCell id="-B80hZHZOHx4zzPaPUC2-32" style="edgeStyle=orthogonalEdgeStyle;rounded=0;orthogonalLoop=1;jettySize=auto;html=1;exitX=1;exitY=0.5;exitDx=0;exitDy=0;exitPerimeter=0;entryX=0.5;entryY=1;entryDx=0;entryDy=0;" edge="1" parent="1" source="-B80hZHZOHx4zzPaPUC2-34" target="-B80hZHZOHx4zzPaPUC2-30">
          <mxGeometry relative="1" as="geometry" />
        </mxCell>
        <mxCell id="-B80hZHZOHx4zzPaPUC2-33" value="Ja" style="edgeLabel;html=1;align=center;verticalAlign=middle;resizable=0;points=[];fontSize=15;" vertex="1" connectable="0" parent="-B80hZHZOHx4zzPaPUC2-32">
          <mxGeometry x="-0.2523" y="4" relative="1" as="geometry">
            <mxPoint y="4" as="offset" />
          </mxGeometry>
        </mxCell>
        <mxCell id="-B80hZHZOHx4zzPaPUC2-34" value="Fråga om att boka skiljda platser" style="strokeWidth=2;html=1;shape=mxgraph.flowchart.decision;whiteSpace=wrap;fillColor=#fff2cc;strokeColor=#d6b656;" vertex="1" parent="1">
          <mxGeometry x="1795" y="-100" width="130" height="100" as="geometry" />
        </mxCell>
        <mxCell id="-B80hZHZOHx4zzPaPUC2-35" style="edgeStyle=orthogonalEdgeStyle;rounded=0;orthogonalLoop=1;jettySize=auto;html=1;exitX=0.5;exitY=1;exitDx=0;exitDy=0;entryX=0.5;entryY=0;entryDx=0;entryDy=0;entryPerimeter=0;" edge="1" parent="1" source="-B80hZHZOHx4zzPaPUC2-14" target="-B80hZHZOHx4zzPaPUC2-34">
          <mxGeometry relative="1" as="geometry" />
        </mxCell>
        <mxCell id="-B80hZHZOHx4zzPaPUC2-36" value="" style="edgeStyle=orthogonalEdgeStyle;rounded=0;orthogonalLoop=1;jettySize=auto;html=1;exitX=0;exitY=0.5;exitDx=0;exitDy=0;exitPerimeter=0;entryX=0;entryY=0.5;entryDx=0;entryDy=0;" edge="1" parent="1" source="-B80hZHZOHx4zzPaPUC2-34" target="-B80hZHZOHx4zzPaPUC2-39">
          <mxGeometry relative="1" as="geometry">
            <mxPoint x="1795" y="-50" as="sourcePoint" />
            <mxPoint x="1520" y="40" as="targetPoint" />
            <Array as="points">
              <mxPoint x="1480" y="-50" />
              <mxPoint x="1480" y="40" />
            </Array>
          </mxGeometry>
        </mxCell>
        <mxCell id="-B80hZHZOHx4zzPaPUC2-37" value="Nej" style="edgeLabel;html=1;align=center;verticalAlign=middle;resizable=0;points=[];fontSize=15;" vertex="1" connectable="0" parent="-B80hZHZOHx4zzPaPUC2-36">
          <mxGeometry x="-0.586" relative="1" as="geometry">
            <mxPoint x="37" as="offset" />
          </mxGeometry>
        </mxCell>
        <mxCell id="-B80hZHZOHx4zzPaPUC2-38" style="edgeStyle=orthogonalEdgeStyle;rounded=0;orthogonalLoop=1;jettySize=auto;html=1;exitX=1;exitY=0.5;exitDx=0;exitDy=0;entryX=0;entryY=0.5;entryDx=0;entryDy=0;" edge="1" parent="1" source="-B80hZHZOHx4zzPaPUC2-39" target="-B80hZHZOHx4zzPaPUC2-7">
          <mxGeometry relative="1" as="geometry" />
        </mxCell>
        <mxCell id="-B80hZHZOHx4zzPaPUC2-39" value="&lt;h1&gt;A&lt;/h1&gt;" style="ellipse;whiteSpace=wrap;html=1;aspect=fixed;align=center;verticalAlign=middle;fontFamily=Helvetica;fontSize=15;labelBackgroundColor=none;resizable=0;fillColor=#ffe6cc;strokeColor=default;" vertex="1" parent="1">
          <mxGeometry x="1370" width="80" height="80" as="geometry" />
        </mxCell>
      </root>
    </mxGraphModel>
  </diagram>
</mxfile>
